<mxfile host="Electron" modified="2023-09-01T17:29:21.203Z" agent="Mozilla/5.0 (Windows NT 10.0; Win64; x64) AppleWebKit/537.36 (KHTML, like Gecko) draw.io/21.6.1 Chrome/112.0.5615.204 Electron/24.6.1 Safari/537.36" etag="sX81W4J6Ge_SGPHQDhtx" version="21.6.1" type="device">
  <diagram name="Page-1" id="EJwl3mLapiGIRNXbGJMq">
    <mxGraphModel dx="4334" dy="2816" grid="1" gridSize="10" guides="1" tooltips="1" connect="1" arrows="1" fold="1" page="1" pageScale="1" pageWidth="3300" pageHeight="2339" math="0" shadow="0">
      <root>
        <mxCell id="0" />
        <mxCell id="1" parent="0" />
        <mxCell id="gFpg3ofJBXBOZiMO8p-D-38" style="edgeStyle=orthogonalEdgeStyle;rounded=0;orthogonalLoop=1;jettySize=auto;html=1;exitX=0.25;exitY=1;exitDx=0;exitDy=0;entryX=1;entryY=0;entryDx=0;entryDy=32.5;entryPerimeter=0;" parent="1" source="gFpg3ofJBXBOZiMO8p-D-9" target="gFpg3ofJBXBOZiMO8p-D-10" edge="1">
          <mxGeometry relative="1" as="geometry" />
        </mxCell>
        <mxCell id="gFpg3ofJBXBOZiMO8p-D-9" value="BASKET_API" style="rounded=1;whiteSpace=wrap;html=1;fillColor=#008a00;fontColor=#ffffff;strokeColor=#005700;fontStyle=1;fontSize=14;" parent="1" vertex="1">
          <mxGeometry x="-2830" y="-2071" width="143" height="60" as="geometry" />
        </mxCell>
        <mxCell id="gFpg3ofJBXBOZiMO8p-D-10" value="REDIS" style="shape=cylinder3;whiteSpace=wrap;html=1;boundedLbl=1;backgroundOutline=1;size=15;fillColor=#fa6800;fontColor=#000000;strokeColor=#C73500;fontStyle=1;fontSize=14;" parent="1" vertex="1">
          <mxGeometry x="-3040" y="-2011" width="120" height="100" as="geometry" />
        </mxCell>
        <mxCell id="gFpg3ofJBXBOZiMO8p-D-12" value="" style="rounded=1;whiteSpace=wrap;html=1;" parent="1" vertex="1">
          <mxGeometry x="130" y="230" width="120" height="340" as="geometry" />
        </mxCell>
        <mxCell id="gFpg3ofJBXBOZiMO8p-D-34" value="" style="edgeStyle=orthogonalEdgeStyle;rounded=0;orthogonalLoop=1;jettySize=auto;html=1;" parent="1" source="gFpg3ofJBXBOZiMO8p-D-13" target="gFpg3ofJBXBOZiMO8p-D-15" edge="1">
          <mxGeometry relative="1" as="geometry" />
        </mxCell>
        <mxCell id="gFpg3ofJBXBOZiMO8p-D-13" value="DISCOUNT_API" style="rounded=1;whiteSpace=wrap;html=1;fillColor=#008a00;fontColor=#ffffff;strokeColor=#005700;fontSize=14;fontStyle=1" parent="1" vertex="1">
          <mxGeometry x="-2830" y="-1834" width="143" height="60" as="geometry" />
        </mxCell>
        <mxCell id="gFpg3ofJBXBOZiMO8p-D-35" style="edgeStyle=orthogonalEdgeStyle;rounded=0;orthogonalLoop=1;jettySize=auto;html=1;exitX=0;exitY=0.5;exitDx=0;exitDy=0;entryX=1;entryY=0.5;entryDx=0;entryDy=0;entryPerimeter=0;" parent="1" source="gFpg3ofJBXBOZiMO8p-D-14" target="gFpg3ofJBXBOZiMO8p-D-15" edge="1">
          <mxGeometry relative="1" as="geometry" />
        </mxCell>
        <mxCell id="gFpg3ofJBXBOZiMO8p-D-14" value="DISCOUNT_GRPC" style="rounded=1;whiteSpace=wrap;html=1;fillColor=#008a00;fontColor=#ffffff;strokeColor=#005700;fontSize=14;fontStyle=1" parent="1" vertex="1">
          <mxGeometry x="-2830" y="-1914" width="143" height="60" as="geometry" />
        </mxCell>
        <mxCell id="gFpg3ofJBXBOZiMO8p-D-15" value="POSTGRER" style="shape=cylinder3;whiteSpace=wrap;html=1;boundedLbl=1;backgroundOutline=1;size=15;fillColor=#fa6800;fontColor=#000000;strokeColor=#C73500;fontSize=14;fontStyle=1" parent="1" vertex="1">
          <mxGeometry x="-3040" y="-1870" width="120" height="100" as="geometry" />
        </mxCell>
        <mxCell id="gFpg3ofJBXBOZiMO8p-D-22" style="edgeStyle=orthogonalEdgeStyle;rounded=0;orthogonalLoop=1;jettySize=auto;html=1;fontSize=14;fontStyle=1;entryX=0.5;entryY=0;entryDx=0;entryDy=0;entryPerimeter=0;" parent="1" target="gFpg3ofJBXBOZiMO8p-D-21" edge="1">
          <mxGeometry relative="1" as="geometry">
            <mxPoint x="-2523" y="-1614" as="targetPoint" />
            <mxPoint x="-2757" y="-1580" as="sourcePoint" />
            <Array as="points">
              <mxPoint x="-2758" y="-1614" />
            </Array>
          </mxGeometry>
        </mxCell>
        <mxCell id="gFpg3ofJBXBOZiMO8p-D-20" value="ORDERING_API" style="rounded=1;whiteSpace=wrap;html=1;fillColor=#008a00;fontColor=#ffffff;strokeColor=#005700;fontSize=14;fontStyle=1" parent="1" vertex="1">
          <mxGeometry x="-2830" y="-1644" width="145" height="60" as="geometry" />
        </mxCell>
        <mxCell id="gFpg3ofJBXBOZiMO8p-D-21" value="SQL-SERVER" style="shape=cylinder3;whiteSpace=wrap;html=1;boundedLbl=1;backgroundOutline=1;size=15;fillColor=#fa6800;fontColor=#000000;strokeColor=#C73500;fontSize=14;fontStyle=1" parent="1" vertex="1">
          <mxGeometry x="-2817.5" y="-1500" width="120" height="100" as="geometry" />
        </mxCell>
        <mxCell id="gFpg3ofJBXBOZiMO8p-D-28" style="edgeStyle=orthogonalEdgeStyle;rounded=0;orthogonalLoop=1;jettySize=auto;html=1;entryX=1.028;entryY=0.086;entryDx=0;entryDy=0;entryPerimeter=0;" parent="1" edge="1">
          <mxGeometry relative="1" as="geometry">
            <mxPoint x="-2830" y="-2041.6633333333334" as="sourcePoint" />
            <mxPoint x="-3088.3199999999997" y="-2040.67" as="targetPoint" />
          </mxGeometry>
        </mxCell>
        <mxCell id="gFpg3ofJBXBOZiMO8p-D-36" style="edgeStyle=orthogonalEdgeStyle;rounded=0;orthogonalLoop=1;jettySize=auto;html=1;exitX=0;exitY=0.5;exitDx=0;exitDy=0;entryX=1;entryY=0.5;entryDx=0;entryDy=0;entryPerimeter=0;" parent="1" source="gFpg3ofJBXBOZiMO8p-D-25" target="gFpg3ofJBXBOZiMO8p-D-26" edge="1">
          <mxGeometry relative="1" as="geometry">
            <mxPoint x="-2900" y="-2210" as="targetPoint" />
          </mxGeometry>
        </mxCell>
        <mxCell id="gFpg3ofJBXBOZiMO8p-D-25" value="CATALOG_API" style="rounded=1;whiteSpace=wrap;html=1;fillColor=#008a00;fontColor=#ffffff;strokeColor=#005700;fontStyle=1;fontSize=14;" parent="1" vertex="1">
          <mxGeometry x="-2830" y="-2240" width="142" height="60" as="geometry" />
        </mxCell>
        <mxCell id="gFpg3ofJBXBOZiMO8p-D-26" value="&lt;span style=&quot;font-size: 14px;&quot;&gt;MONGODB&lt;/span&gt;" style="shape=cylinder3;whiteSpace=wrap;html=1;boundedLbl=1;backgroundOutline=1;size=15;fillColor=#fa6800;fontColor=#000000;strokeColor=#C73500;fontStyle=1;fontSize=14;" parent="1" vertex="1">
          <mxGeometry x="-3030" y="-2260" width="120" height="100" as="geometry" />
        </mxCell>
        <mxCell id="gFpg3ofJBXBOZiMO8p-D-27" value="MQ" style="shape=cylinder3;whiteSpace=wrap;html=1;boundedLbl=1;backgroundOutline=1;size=15;fontSize=14;fontStyle=1;fillColor=#0050ef;fontColor=#ffffff;strokeColor=#001DBC;" parent="1" vertex="1">
          <mxGeometry x="-3150" y="-2270" width="60" height="710" as="geometry" />
        </mxCell>
        <mxCell id="gFpg3ofJBXBOZiMO8p-D-29" value="BASKET_CHECKOUT_EVENT" style="text;html=1;align=center;verticalAlign=middle;resizable=0;points=[];autosize=1;strokeColor=none;fillColor=none;fontSize=14;fontStyle=1" parent="1" vertex="1">
          <mxGeometry x="-3065" y="-2068" width="220" height="30" as="geometry" />
        </mxCell>
        <mxCell id="gFpg3ofJBXBOZiMO8p-D-30" style="edgeStyle=orthogonalEdgeStyle;rounded=0;orthogonalLoop=1;jettySize=auto;html=1;entryX=1.028;entryY=0.086;entryDx=0;entryDy=0;entryPerimeter=0;" parent="1" edge="1">
          <mxGeometry relative="1" as="geometry">
            <mxPoint x="-3090.16" y="-1609.0100000000002" as="sourcePoint" />
            <mxPoint x="-2831.84" y="-1610.0033333333336" as="targetPoint" />
          </mxGeometry>
        </mxCell>
        <mxCell id="gFpg3ofJBXBOZiMO8p-D-31" value="BASKET_CHECKOUT_EVENT" style="text;html=1;align=center;verticalAlign=middle;resizable=0;points=[];autosize=1;strokeColor=none;fillColor=none;fontSize=14;fontStyle=1" parent="1" vertex="1">
          <mxGeometry x="-3070" y="-1643" width="220" height="30" as="geometry" />
        </mxCell>
        <mxCell id="gFpg3ofJBXBOZiMO8p-D-32" style="edgeStyle=orthogonalEdgeStyle;rounded=0;orthogonalLoop=1;jettySize=auto;html=1;" parent="1" source="gFpg3ofJBXBOZiMO8p-D-9" edge="1">
          <mxGeometry relative="1" as="geometry">
            <mxPoint x="-2760" y="-2005" as="sourcePoint" />
            <mxPoint x="-2760" y="-1915" as="targetPoint" />
          </mxGeometry>
        </mxCell>
        <mxCell id="gFpg3ofJBXBOZiMO8p-D-52" style="edgeStyle=orthogonalEdgeStyle;rounded=0;orthogonalLoop=1;jettySize=auto;html=1;exitX=0.5;exitY=0;exitDx=0;exitDy=0;entryX=0.5;entryY=0;entryDx=0;entryDy=0;" parent="1" target="gFpg3ofJBXBOZiMO8p-D-39" edge="1">
          <mxGeometry relative="1" as="geometry">
            <mxPoint x="-2120" y="-2008.3333333333335" as="sourcePoint" />
          </mxGeometry>
        </mxCell>
        <mxCell id="gFpg3ofJBXBOZiMO8p-D-39" value="OCELOTAPI_GW" style="rounded=1;whiteSpace=wrap;html=1;fillColor=#a20025;fontColor=#ffffff;strokeColor=#6F0000;fontStyle=1;rotation=90;" parent="1" vertex="1">
          <mxGeometry x="-2453" y="-2039" width="210" height="60" as="geometry" />
        </mxCell>
        <mxCell id="gFpg3ofJBXBOZiMO8p-D-40" value="" style="endArrow=classic;html=1;rounded=0;entryX=1;entryY=0.75;entryDx=0;entryDy=0;" parent="1" target="gFpg3ofJBXBOZiMO8p-D-25" edge="1">
          <mxGeometry width="50" height="50" relative="1" as="geometry">
            <mxPoint x="-2380" y="-2010" as="sourcePoint" />
            <mxPoint x="-2580" y="-2020" as="targetPoint" />
          </mxGeometry>
        </mxCell>
        <mxCell id="gFpg3ofJBXBOZiMO8p-D-41" value="" style="endArrow=classic;html=1;rounded=0;entryX=1;entryY=0.5;entryDx=0;entryDy=0;" parent="1" target="gFpg3ofJBXBOZiMO8p-D-9" edge="1">
          <mxGeometry width="50" height="50" relative="1" as="geometry">
            <mxPoint x="-2380" y="-2010" as="sourcePoint" />
            <mxPoint x="-2678" y="-2200" as="targetPoint" />
          </mxGeometry>
        </mxCell>
        <mxCell id="gFpg3ofJBXBOZiMO8p-D-42" value="" style="endArrow=classic;html=1;rounded=0;entryX=1;entryY=0.5;entryDx=0;entryDy=0;" parent="1" target="gFpg3ofJBXBOZiMO8p-D-20" edge="1">
          <mxGeometry width="50" height="50" relative="1" as="geometry">
            <mxPoint x="-2380" y="-2010" as="sourcePoint" />
            <mxPoint x="-2677" y="-2031" as="targetPoint" />
          </mxGeometry>
        </mxCell>
        <mxCell id="gFpg3ofJBXBOZiMO8p-D-43" value="" style="endArrow=classic;html=1;rounded=0;entryX=1;entryY=0.5;entryDx=0;entryDy=0;" parent="1" target="gFpg3ofJBXBOZiMO8p-D-13" edge="1">
          <mxGeometry width="50" height="50" relative="1" as="geometry">
            <mxPoint x="-2380" y="-2010" as="sourcePoint" />
            <mxPoint x="-2677" y="-1874" as="targetPoint" />
          </mxGeometry>
        </mxCell>
        <mxCell id="gFpg3ofJBXBOZiMO8p-D-46" style="edgeStyle=orthogonalEdgeStyle;rounded=0;orthogonalLoop=1;jettySize=auto;html=1;exitX=0;exitY=0.5;exitDx=0;exitDy=0;fillColor=#f8cecc;strokeColor=#b85450;" parent="1" source="gFpg3ofJBXBOZiMO8p-D-44" target="gFpg3ofJBXBOZiMO8p-D-25" edge="1">
          <mxGeometry relative="1" as="geometry">
            <Array as="points">
              <mxPoint x="-2630" y="-2210" />
              <mxPoint x="-2630" y="-2210" />
            </Array>
          </mxGeometry>
        </mxCell>
        <mxCell id="gFpg3ofJBXBOZiMO8p-D-44" value="Aggregator" style="rounded=1;whiteSpace=wrap;html=1;fillColor=#008a00;fontColor=#ffffff;strokeColor=#005700;fontSize=14;fontStyle=1" parent="1" vertex="1">
          <mxGeometry x="-2598" y="-2240" width="145" height="60" as="geometry" />
        </mxCell>
        <mxCell id="gFpg3ofJBXBOZiMO8p-D-48" value="" style="endArrow=classic;html=1;rounded=0;exitX=0;exitY=0.5;exitDx=0;exitDy=0;entryX=1.003;entryY=0.383;entryDx=0;entryDy=0;fillColor=#f8cecc;strokeColor=#b85450;entryPerimeter=0;" parent="1" source="gFpg3ofJBXBOZiMO8p-D-44" target="gFpg3ofJBXBOZiMO8p-D-9" edge="1">
          <mxGeometry width="50" height="50" relative="1" as="geometry">
            <mxPoint x="-2830" y="-2100" as="sourcePoint" />
            <mxPoint x="-2780" y="-2150" as="targetPoint" />
          </mxGeometry>
        </mxCell>
        <mxCell id="gFpg3ofJBXBOZiMO8p-D-49" value="" style="endArrow=classic;html=1;rounded=0;entryX=1;entryY=0.25;entryDx=0;entryDy=0;fillColor=#f8cecc;strokeColor=#b85450;" parent="1" target="gFpg3ofJBXBOZiMO8p-D-13" edge="1">
          <mxGeometry width="50" height="50" relative="1" as="geometry">
            <mxPoint x="-2600" y="-2200" as="sourcePoint" />
            <mxPoint x="-2677" y="-2061" as="targetPoint" />
          </mxGeometry>
        </mxCell>
        <mxCell id="gFpg3ofJBXBOZiMO8p-D-50" value="" style="endArrow=classic;html=1;rounded=0;exitX=0;exitY=0.75;exitDx=0;exitDy=0;entryX=0.966;entryY=0.067;entryDx=0;entryDy=0;fillColor=#f8cecc;strokeColor=#b85450;entryPerimeter=0;" parent="1" source="gFpg3ofJBXBOZiMO8p-D-44" target="gFpg3ofJBXBOZiMO8p-D-20" edge="1">
          <mxGeometry width="50" height="50" relative="1" as="geometry">
            <mxPoint x="-2578" y="-2190" as="sourcePoint" />
            <mxPoint x="-2667" y="-2051" as="targetPoint" />
          </mxGeometry>
        </mxCell>
        <mxCell id="gFpg3ofJBXBOZiMO8p-D-51" value="" style="endArrow=classic;html=1;rounded=0;entryX=0.5;entryY=1;entryDx=0;entryDy=0;" parent="1" target="gFpg3ofJBXBOZiMO8p-D-44" edge="1">
          <mxGeometry width="50" height="50" relative="1" as="geometry">
            <mxPoint x="-2380" y="-2010" as="sourcePoint" />
            <mxPoint x="-2678" y="-2200" as="targetPoint" />
            <Array as="points">
              <mxPoint x="-2450" y="-2090" />
            </Array>
          </mxGeometry>
        </mxCell>
      </root>
    </mxGraphModel>
  </diagram>
</mxfile>
